<svg width="215" height="70" viewBox="0 0 215 70" fill="none" xmlns="http://www.w3.org/2000/svg">
<path d="M105.632 35.2651L103.545 41H85.9668V40.187C91.1377 35.4702 94.7778 31.6177 96.8872 28.6294C98.9966 25.6411 100.051 22.9092 100.051 20.4336C100.051 18.5439 99.4727 16.9912 98.3154 15.7754C97.1582 14.5596 95.7739 13.9517 94.1626 13.9517C92.6978 13.9517 91.3794 14.3838 90.2075 15.248C89.0503 16.0977 88.1934 17.3501 87.6367 19.0054H86.8237C87.1899 16.2954 88.1274 14.2153 89.6362 12.7651C91.1597 11.3149 93.0566 10.5898 95.3271 10.5898C97.7441 10.5898 99.7583 11.3662 101.37 12.9189C102.996 14.4717 103.809 16.3027 103.809 18.4121C103.809 19.9209 103.457 21.4297 102.754 22.9385C101.67 25.3115 99.9121 27.8237 97.4805 30.4751C93.833 34.4595 91.5552 36.8618 90.647 37.6821H98.4253C100.007 37.6821 101.113 37.6235 101.743 37.5063C102.388 37.3892 102.966 37.1548 103.479 36.8032C103.992 36.437 104.438 35.9243 104.819 35.2651H105.632ZM128.132 35.2651L126.045 41H108.467V40.187C113.638 35.4702 117.278 31.6177 119.387 28.6294C121.497 25.6411 122.551 22.9092 122.551 20.4336C122.551 18.5439 121.973 16.9912 120.815 15.7754C119.658 14.5596 118.274 13.9517 116.663 13.9517C115.198 13.9517 113.879 14.3838 112.708 15.248C111.55 16.0977 110.693 17.3501 110.137 19.0054H109.324C109.69 16.2954 110.627 14.2153 112.136 12.7651C113.66 11.3149 115.557 10.5898 117.827 10.5898C120.244 10.5898 122.258 11.3662 123.87 12.9189C125.496 14.4717 126.309 16.3027 126.309 18.4121C126.309 19.9209 125.957 21.4297 125.254 22.9385C124.17 25.3115 122.412 27.8237 119.98 30.4751C116.333 34.4595 114.055 36.8618 113.147 37.6821H120.925C122.507 37.6821 123.613 37.6235 124.243 37.5063C124.888 37.3892 125.466 37.1548 125.979 36.8032C126.492 36.437 126.938 35.9243 127.319 35.2651H128.132Z" fill="white"/>
<path d="M140.5 13.5H214.5" stroke="white" stroke-linecap="round"/>
<path d="M140.5 38.5H214.5" stroke="white" stroke-linecap="round"/>
<path d="M0.5 13.5H74.5" stroke="white" stroke-linecap="round"/>
<path d="M0.5 38.5H74.5" stroke="white" stroke-linecap="round"/>
<path d="M94.5527 63.7061L93.7178 66H86.6865V65.6748C88.7549 63.7881 90.2109 62.2471 91.0547 61.0518C91.8984 59.8564 92.3203 58.7637 92.3203 57.7734C92.3203 57.0176 92.0889 56.3965 91.626 55.9102C91.1631 55.4238 90.6094 55.1807 89.9648 55.1807C89.3789 55.1807 88.8516 55.3535 88.3828 55.6992C87.9199 56.0391 87.5771 56.54 87.3545 57.2021H87.0293C87.1758 56.1182 87.5508 55.2861 88.1543 54.7061C88.7637 54.126 89.5225 53.8359 90.4307 53.8359C91.3975 53.8359 92.2031 54.1465 92.8477 54.7676C93.498 55.3887 93.8232 56.1211 93.8232 56.9648C93.8232 57.5684 93.6826 58.1719 93.4014 58.7754C92.9678 59.7246 92.2646 60.7295 91.292 61.79C89.833 63.3838 88.9219 64.3447 88.5586 64.6729H91.6699C92.3027 64.6729 92.7451 64.6494 92.9971 64.6025C93.2549 64.5557 93.4863 64.4619 93.6914 64.3213C93.8965 64.1748 94.0752 63.9697 94.2275 63.7061H94.5527ZM97.7502 60.1113C97.7502 58.752 97.9553 57.583 98.3654 56.6045C98.7756 55.6201 99.3205 54.8877 99.9998 54.4072C100.528 54.0264 101.073 53.8359 101.635 53.8359C102.549 53.8359 103.37 54.3018 104.096 55.2334C105.004 56.3877 105.458 57.9521 105.458 59.9268C105.458 61.3096 105.259 62.4844 104.861 63.4512C104.462 64.418 103.953 65.1211 103.331 65.5605C102.716 65.9941 102.121 66.2109 101.547 66.2109C100.411 66.2109 99.4641 65.54 98.7082 64.1982C98.0695 63.0674 97.7502 61.7051 97.7502 60.1113ZM99.4728 60.3311C99.4728 61.9717 99.675 63.3105 100.079 64.3477C100.413 65.2207 100.912 65.6572 101.574 65.6572C101.89 65.6572 102.218 65.5166 102.558 65.2354C102.898 64.9482 103.156 64.4707 103.331 63.8027C103.601 62.7949 103.736 61.374 103.736 59.54C103.736 58.1807 103.595 57.0469 103.314 56.1387C103.103 55.4648 102.83 54.9873 102.496 54.7061C102.256 54.5127 101.966 54.416 101.626 54.416C101.228 54.416 100.873 54.5947 100.563 54.9521C100.141 55.4385 99.8537 56.2031 99.7014 57.2461C99.549 58.2891 99.4728 59.3174 99.4728 60.3311ZM116.153 63.7061L115.318 66H108.287V65.6748C110.355 63.7881 111.811 62.2471 112.655 61.0518C113.499 59.8564 113.921 58.7637 113.921 57.7734C113.921 57.0176 113.689 56.3965 113.226 55.9102C112.763 55.4238 112.21 55.1807 111.565 55.1807C110.979 55.1807 110.452 55.3535 109.983 55.6992C109.52 56.0391 109.177 56.54 108.955 57.2021H108.629C108.776 56.1182 109.151 55.2861 109.754 54.7061C110.364 54.126 111.123 53.8359 112.031 53.8359C112.998 53.8359 113.803 54.1465 114.448 54.7676C115.098 55.3887 115.423 56.1211 115.423 56.9648C115.423 57.5684 115.283 58.1719 115.002 58.7754C114.568 59.7246 113.865 60.7295 112.892 61.79C111.433 63.3838 110.522 64.3447 110.159 64.6729H113.27C113.903 64.6729 114.345 64.6494 114.597 64.6025C114.855 64.5557 115.087 64.4619 115.292 64.3213C115.497 64.1748 115.675 63.9697 115.828 63.7061H116.153ZM126.953 63.7061L126.118 66H119.087V65.6748C121.155 63.7881 122.611 62.2471 123.455 61.0518C124.299 59.8564 124.721 58.7637 124.721 57.7734C124.721 57.0176 124.489 56.3965 124.026 55.9102C123.563 55.4238 123.01 55.1807 122.365 55.1807C121.779 55.1807 121.252 55.3535 120.783 55.6992C120.32 56.0391 119.977 56.54 119.755 57.2021H119.429C119.576 56.1182 119.951 55.2861 120.554 54.7061C121.164 54.126 121.923 53.8359 122.831 53.8359C123.798 53.8359 124.603 54.1465 125.248 54.7676C125.898 55.3887 126.223 56.1211 126.223 56.9648C126.223 57.5684 126.083 58.1719 125.802 58.7754C125.368 59.7246 124.665 60.7295 123.692 61.79C122.233 63.3838 121.322 64.3447 120.959 64.6729H124.07C124.703 64.6729 125.145 64.6494 125.397 64.6025C125.655 64.5557 125.887 64.4619 126.092 64.3213C126.297 64.1748 126.475 63.9697 126.628 63.7061H126.953Z" fill="white"/>
<path d="M165.125 32H160.915V31.4199C161.05 31.4082 161.188 31.3965 161.328 31.3848C161.475 31.373 161.601 31.3496 161.706 31.3145C161.87 31.2617 161.996 31.1709 162.084 31.042C162.172 30.9072 162.216 30.7344 162.216 30.5234V25.9707L158.226 30.2861V30.4355C158.226 30.6348 158.267 30.7988 158.349 30.9277C158.431 31.0566 158.554 31.1562 158.718 31.2266C158.847 31.2852 158.981 31.3291 159.122 31.3584C159.269 31.3877 159.421 31.4082 159.579 31.4199V32H155.369V31.4199C155.504 31.4082 155.642 31.3965 155.782 31.3848C155.929 31.373 156.055 31.3496 156.16 31.3145C156.324 31.2617 156.444 31.1709 156.521 31.042C156.603 30.9072 156.644 30.7344 156.644 30.5234V24.8984C156.644 24.7051 156.603 24.5439 156.521 24.415C156.438 24.2803 156.315 24.1777 156.151 24.1074C155.999 24.0371 155.85 23.9902 155.703 23.9668C155.562 23.9434 155.431 23.9258 155.308 23.9141V23.334H159.518V23.9141C159.348 23.9258 159.198 23.9404 159.069 23.958C158.946 23.9756 158.832 23.9961 158.727 24.0195C158.562 24.0664 158.439 24.1602 158.357 24.3008C158.281 24.4355 158.243 24.6055 158.243 24.8105V29.293L162.233 24.9688C162.233 24.7109 162.192 24.5205 162.11 24.3975C162.028 24.2744 161.905 24.1777 161.741 24.1074C161.589 24.0371 161.437 23.9902 161.284 23.9668C161.138 23.9434 161.003 23.9258 160.88 23.9141V23.334H165.09V23.9141C164.92 23.9258 164.771 23.9404 164.642 23.958C164.519 23.9756 164.404 23.9961 164.299 24.0195C164.135 24.0664 164.012 24.1602 163.93 24.3008C163.854 24.4355 163.815 24.6055 163.815 24.8105V30.4355C163.815 30.6406 163.851 30.8076 163.921 30.9365C163.991 31.0596 164.111 31.1562 164.281 31.2266C164.404 31.2852 164.536 31.3291 164.677 31.3584C164.823 31.3877 164.973 31.4082 165.125 31.4199V32ZM176.973 30.418C177.154 30.0488 177.289 29.6299 177.377 29.1611C177.465 28.6865 177.509 28.165 177.509 27.5967C177.509 27.1162 177.474 26.6504 177.403 26.1992C177.333 25.7422 177.207 25.3291 177.025 24.96C176.85 24.5967 176.612 24.3066 176.313 24.0898C176.021 23.8672 175.654 23.7559 175.215 23.7559C174.74 23.7559 174.351 23.873 174.046 24.1074C173.741 24.3418 173.501 24.6406 173.325 25.0039C173.149 25.3555 173.026 25.7568 172.956 26.208C172.886 26.6592 172.851 27.1074 172.851 27.5527C172.851 28.0977 172.892 28.6162 172.974 29.1084C173.062 29.5947 173.199 30.0225 173.387 30.3916C173.574 30.7666 173.814 31.0625 174.107 31.2793C174.4 31.4902 174.77 31.5957 175.215 31.5957C175.613 31.5957 175.959 31.4902 176.252 31.2793C176.551 31.0625 176.791 30.7754 176.973 30.418ZM172.297 31.0596C171.934 30.6611 171.649 30.1895 171.444 29.6445C171.239 29.0938 171.131 28.4668 171.119 27.7637H169.282V30.4355C169.282 30.6348 169.323 30.7988 169.405 30.9277C169.487 31.0566 169.61 31.1562 169.774 31.2266C169.897 31.2852 170.029 31.3291 170.17 31.3584C170.316 31.3877 170.466 31.4082 170.618 31.4199V32H166.391V31.4199C166.525 31.4082 166.663 31.3965 166.804 31.3848C166.95 31.373 167.076 31.3496 167.182 31.3145C167.346 31.2617 167.466 31.1709 167.542 31.042C167.624 30.9072 167.665 30.7344 167.665 30.5234V24.8984C167.665 24.7051 167.624 24.5439 167.542 24.415C167.46 24.2803 167.337 24.1777 167.173 24.1074C167.021 24.0371 166.871 23.9902 166.725 23.9668C166.584 23.9434 166.452 23.9258 166.329 23.9141V23.334H170.557V23.9141C170.387 23.9258 170.237 23.9404 170.108 23.958C169.985 23.9756 169.871 23.9961 169.766 24.0195C169.602 24.0664 169.479 24.1602 169.396 24.3008C169.32 24.4355 169.282 24.6055 169.282 24.8105V27.043H171.146C171.257 25.8711 171.673 24.9189 172.394 24.1865C173.12 23.4541 174.066 23.0879 175.232 23.0879C175.883 23.0879 176.46 23.2051 176.964 23.4395C177.474 23.6738 177.898 23.9844 178.238 24.3711C178.596 24.7754 178.865 25.2471 179.047 25.7861C179.234 26.3193 179.328 26.917 179.328 27.5791C179.328 28.2002 179.234 28.8008 179.047 29.3809C178.865 29.9609 178.599 30.459 178.247 30.875C177.878 31.3086 177.438 31.6484 176.929 31.8945C176.419 32.1406 175.81 32.2637 175.101 32.2637C174.556 32.2637 174.043 32.1611 173.562 31.9561C173.082 31.7451 172.66 31.4463 172.297 31.0596ZM189.805 32H185.568V31.4199C185.703 31.4082 185.841 31.3965 185.981 31.3848C186.122 31.373 186.245 31.3496 186.351 31.3145C186.515 31.2617 186.641 31.1709 186.729 31.042C186.816 30.9072 186.86 30.7344 186.86 30.5234V24.0547H184.452C184.452 25.4844 184.353 26.7148 184.153 27.7461C183.954 28.7773 183.696 29.6182 183.38 30.2686C183.069 30.9072 182.718 31.3848 182.325 31.7012C181.933 32.0176 181.531 32.1758 181.121 32.1758C180.699 32.1758 180.38 32.0674 180.163 31.8506C179.946 31.6279 179.838 31.3701 179.838 31.0771C179.838 30.8662 179.905 30.667 180.04 30.4795C180.181 30.292 180.383 30.1982 180.646 30.1982C180.893 30.1982 181.115 30.2686 181.314 30.4092C181.514 30.5498 181.707 30.7461 181.895 30.998C182.035 30.8691 182.199 30.6318 182.387 30.2861C182.58 29.9346 182.756 29.501 182.914 28.9854C183.09 28.4287 183.233 27.8516 183.345 27.2539C183.456 26.6562 183.512 25.9707 183.512 25.1973C183.512 24.8926 183.474 24.667 183.397 24.5205C183.321 24.374 183.201 24.2598 183.037 24.1777C182.926 24.1191 182.744 24.0664 182.492 24.0195C182.24 23.9668 182.035 23.9316 181.877 23.9141V23.334H189.77V23.9141C189.6 23.9258 189.45 23.9404 189.321 23.958C189.198 23.9756 189.084 23.9961 188.979 24.0195C188.814 24.0664 188.691 24.1602 188.609 24.3008C188.533 24.4355 188.495 24.6055 188.495 24.8105V30.4355C188.495 30.6406 188.53 30.8076 188.601 30.9365C188.671 31.0596 188.791 31.1562 188.961 31.2266C189.084 31.2852 189.216 31.3291 189.356 31.3584C189.503 31.3877 189.652 31.4082 189.805 31.4199V32ZM196.722 27.4473V23.958H195.737C195.122 23.958 194.612 24.1016 194.208 24.3887C193.804 24.6758 193.602 25.1006 193.602 25.6631C193.602 26.2432 193.815 26.6855 194.243 26.9902C194.671 27.2949 195.28 27.4473 196.071 27.4473H196.722ZM194.067 27.8164V27.7637C193.276 27.6055 192.699 27.3447 192.336 26.9814C191.979 26.6123 191.8 26.1465 191.8 25.584C191.8 24.8926 192.11 24.3447 192.731 23.9404C193.358 23.5361 194.149 23.334 195.104 23.334H199.631V23.9141C199.461 23.9258 199.312 23.9404 199.183 23.958C199.06 23.9756 198.945 23.9961 198.84 24.0195C198.676 24.0664 198.553 24.1602 198.471 24.3008C198.395 24.4355 198.356 24.6055 198.356 24.8105V30.4355C198.356 30.6406 198.392 30.8076 198.462 30.9365C198.532 31.0596 198.652 31.1562 198.822 31.2266C198.945 31.2852 199.077 31.3291 199.218 31.3584C199.364 31.3877 199.514 31.4082 199.666 31.4199V32H195.421V31.4199C195.556 31.4082 195.693 31.3965 195.834 31.3848C195.98 31.373 196.106 31.3496 196.212 31.3145C196.376 31.2617 196.502 31.1709 196.59 31.042C196.678 30.9072 196.722 30.7344 196.722 30.5234V28.0889H196.353C195.808 28.0889 195.38 28.1943 195.069 28.4053C194.765 28.6104 194.472 29 194.19 29.5742C193.985 30.002 193.815 30.3975 193.681 30.7607C193.552 31.124 193.417 31.5371 193.276 32H190.314V31.4199C190.449 31.4023 190.575 31.3848 190.692 31.3672C190.815 31.3496 190.947 31.3291 191.088 31.3057C191.27 31.2705 191.434 31.2002 191.58 31.0947C191.732 30.9893 191.864 30.8164 191.976 30.5762C192.034 30.4414 192.113 30.2627 192.213 30.04C192.318 29.8115 192.441 29.5566 192.582 29.2754C192.77 28.9062 192.978 28.6045 193.206 28.3701C193.44 28.1357 193.728 27.9512 194.067 27.8164Z" fill="white"/>
<path d="M11.6787 32H7.44238V31.4199C7.57715 31.4082 7.71484 31.3965 7.85547 31.3848C7.99609 31.373 8.11914 31.3496 8.22461 31.3145C8.38867 31.2617 8.51465 31.1709 8.60254 31.042C8.69043 30.9072 8.73438 30.7344 8.73438 30.5234V24.0547H5.02539V30.4355C5.02539 30.6348 5.06641 30.7988 5.14844 30.9277C5.23047 31.0566 5.35352 31.1562 5.51758 31.2266C5.64062 31.2852 5.77246 31.3291 5.91309 31.3584C6.05371 31.3877 6.2002 31.4082 6.35254 31.4199V32H2.11621V31.4199C2.25098 31.4082 2.38867 31.3965 2.5293 31.3848C2.67578 31.373 2.80176 31.3496 2.90723 31.3145C3.07129 31.2617 3.19141 31.1709 3.26758 31.042C3.34961 30.9072 3.39062 30.7344 3.39062 30.5234V24.8984C3.39062 24.7051 3.34961 24.5439 3.26758 24.415C3.18555 24.2803 3.0625 24.1777 2.89844 24.1074C2.74609 24.0371 2.59668 23.9902 2.4502 23.9668C2.30957 23.9434 2.17773 23.9258 2.05469 23.9141V23.334H11.6436V23.9141C11.4736 23.9258 11.3242 23.9404 11.1953 23.958C11.0723 23.9756 10.958 23.9961 10.8525 24.0195C10.6885 24.0664 10.5654 24.1602 10.4834 24.3008C10.4072 24.4355 10.3691 24.6055 10.3691 24.8105V30.4355C10.3691 30.6406 10.4043 30.8076 10.4746 30.9365C10.5449 31.0596 10.665 31.1562 10.835 31.2266C10.958 31.2852 11.0898 31.3291 11.2305 31.3584C11.377 31.3877 11.5264 31.4082 11.6787 31.4199V32ZM18.5957 27.4473V23.958H17.6113C16.9961 23.958 16.4863 24.1016 16.082 24.3887C15.6777 24.6758 15.4756 25.1006 15.4756 25.6631C15.4756 26.2432 15.6895 26.6855 16.1172 26.9902C16.5449 27.2949 17.1543 27.4473 17.9453 27.4473H18.5957ZM15.9414 27.8164V27.7637C15.1504 27.6055 14.5732 27.3447 14.21 26.9814C13.8525 26.6123 13.6738 26.1465 13.6738 25.584C13.6738 24.8926 13.9844 24.3447 14.6055 23.9404C15.2324 23.5361 16.0234 23.334 16.9785 23.334H21.5049V23.9141C21.335 23.9258 21.1855 23.9404 21.0566 23.958C20.9336 23.9756 20.8193 23.9961 20.7139 24.0195C20.5498 24.0664 20.4268 24.1602 20.3447 24.3008C20.2686 24.4355 20.2305 24.6055 20.2305 24.8105V30.4355C20.2305 30.6406 20.2656 30.8076 20.3359 30.9365C20.4062 31.0596 20.5264 31.1562 20.6963 31.2266C20.8193 31.2852 20.9512 31.3291 21.0918 31.3584C21.2383 31.3877 21.3877 31.4082 21.54 31.4199V32H17.2949V31.4199C17.4297 31.4082 17.5674 31.3965 17.708 31.3848C17.8545 31.373 17.9805 31.3496 18.0859 31.3145C18.25 31.2617 18.376 31.1709 18.4639 31.042C18.5518 30.9072 18.5957 30.7344 18.5957 30.5234V28.0889H18.2266C17.6816 28.0889 17.2539 28.1943 16.9434 28.4053C16.6387 28.6104 16.3457 29 16.0645 29.5742C15.8594 30.002 15.6895 30.3975 15.5547 30.7607C15.4258 31.124 15.291 31.5371 15.1504 32H12.1885V31.4199C12.3232 31.4023 12.4492 31.3848 12.5664 31.3672C12.6895 31.3496 12.8213 31.3291 12.9619 31.3057C13.1436 31.2705 13.3076 31.2002 13.4541 31.0947C13.6064 30.9893 13.7383 30.8164 13.8496 30.5762C13.9082 30.4414 13.9873 30.2627 14.0869 30.04C14.1924 29.8115 14.3154 29.5566 14.4561 29.2754C14.6436 28.9062 14.8516 28.6045 15.0801 28.3701C15.3145 28.1357 15.6016 27.9512 15.9414 27.8164ZM30.4346 26.1113H29.8984C29.8457 25.9473 29.7666 25.7539 29.6611 25.5312C29.5615 25.3086 29.4502 25.0977 29.3271 24.8984C29.1982 24.6816 29.0518 24.4912 28.8877 24.3271C28.7295 24.1572 28.5625 24.0605 28.3867 24.0371C28.2051 24.0195 28.0029 24.0078 27.7803 24.002C27.5576 23.9902 27.3672 23.9844 27.209 23.9844V30.4355C27.209 30.6348 27.25 30.7988 27.332 30.9277C27.4141 31.0566 27.5371 31.1562 27.7012 31.2266C27.8301 31.2852 27.9766 31.3291 28.1406 31.3584C28.3047 31.3877 28.4658 31.4082 28.624 31.4199V32H24.2119V31.4199C24.3467 31.4082 24.499 31.3965 24.6689 31.3848C24.8447 31.373 24.9854 31.3496 25.0908 31.3145C25.2549 31.2617 25.375 31.1709 25.4512 31.042C25.5332 30.9072 25.5742 30.7344 25.5742 30.5234V23.9844C25.3867 23.9902 25.1758 23.999 24.9414 24.0107C24.707 24.0166 24.5225 24.0254 24.3877 24.0371C24.2354 24.0488 24.0713 24.1455 23.8955 24.3271C23.7256 24.5088 23.5762 24.6992 23.4473 24.8984C23.3242 25.0977 23.21 25.3203 23.1045 25.5664C22.999 25.8066 22.9258 25.9883 22.8848 26.1113H22.3486V23.334H30.4346V26.1113ZM40.9727 32H36.7363V31.4199C36.8711 31.4082 37.0088 31.3965 37.1494 31.3848C37.2959 31.373 37.4219 31.3496 37.5273 31.3145C37.6914 31.2617 37.8174 31.1709 37.9053 31.042C37.9932 30.9072 38.0371 30.7344 38.0371 30.5234V27.7637H34.1787V30.4355C34.1787 30.6348 34.2197 30.7988 34.3018 30.9277C34.3838 31.0566 34.5068 31.1562 34.6709 31.2266C34.7939 31.2852 34.9258 31.3291 35.0664 31.3584C35.2129 31.3877 35.3623 31.4082 35.5146 31.4199V32H31.2783V31.4199C31.4131 31.4082 31.5508 31.3965 31.6914 31.3848C31.8379 31.373 31.9639 31.3496 32.0693 31.3145C32.2334 31.2617 32.3535 31.1709 32.4297 31.042C32.5117 30.9072 32.5527 30.7344 32.5527 30.5234V24.8984C32.5527 24.7051 32.5117 24.5439 32.4297 24.415C32.3477 24.2803 32.2246 24.1777 32.0605 24.1074C31.9082 24.0371 31.7588 23.9902 31.6123 23.9668C31.4717 23.9434 31.3398 23.9258 31.2168 23.9141V23.334H35.4531V23.9141C35.2832 23.9258 35.1338 23.9404 35.0049 23.958C34.8818 23.9756 34.7676 23.9961 34.6621 24.0195C34.498 24.0664 34.375 24.1602 34.293 24.3008C34.2168 24.4355 34.1787 24.6055 34.1787 24.8105V27.043H38.0371V24.8984C38.0371 24.7051 37.9961 24.5439 37.9141 24.415C37.832 24.2803 37.709 24.1777 37.5449 24.1074C37.3926 24.0371 37.2432 23.9902 37.0967 23.9668C36.9561 23.9434 36.8242 23.9258 36.7012 23.9141V23.334H40.9375V23.9141C40.7676 23.9258 40.6182 23.9404 40.4893 23.958C40.3662 23.9756 40.252 23.9961 40.1465 24.0195C39.9824 24.0664 39.8594 24.1602 39.7773 24.3008C39.7012 24.4355 39.6631 24.6055 39.6631 24.8105V30.4355C39.6631 30.6406 39.6982 30.8076 39.7686 30.9365C39.8389 31.0596 39.959 31.1562 40.1289 31.2266C40.252 31.2852 40.3838 31.3291 40.5244 31.3584C40.6709 31.3877 40.8203 31.4082 40.9727 31.4199V32ZM52.0029 32H47.793V31.4199C47.9277 31.4082 48.0654 31.3965 48.2061 31.3848C48.3525 31.373 48.4785 31.3496 48.584 31.3145C48.748 31.2617 48.874 31.1709 48.9619 31.042C49.0498 30.9072 49.0938 30.7344 49.0938 30.5234V25.9707L45.1035 30.2861V30.4355C45.1035 30.6348 45.1445 30.7988 45.2266 30.9277C45.3086 31.0566 45.4316 31.1562 45.5957 31.2266C45.7246 31.2852 45.8594 31.3291 46 31.3584C46.1465 31.3877 46.2988 31.4082 46.457 31.4199V32H42.2471V31.4199C42.3818 31.4082 42.5195 31.3965 42.6602 31.3848C42.8066 31.373 42.9326 31.3496 43.0381 31.3145C43.2021 31.2617 43.3223 31.1709 43.3984 31.042C43.4805 30.9072 43.5215 30.7344 43.5215 30.5234V24.8984C43.5215 24.7051 43.4805 24.5439 43.3984 24.415C43.3164 24.2803 43.1934 24.1777 43.0293 24.1074C42.877 24.0371 42.7275 23.9902 42.5811 23.9668C42.4404 23.9434 42.3086 23.9258 42.1855 23.9141V23.334H46.3955V23.9141C46.2256 23.9258 46.0762 23.9404 45.9473 23.958C45.8242 23.9756 45.71 23.9961 45.6045 24.0195C45.4404 24.0664 45.3174 24.1602 45.2354 24.3008C45.1592 24.4355 45.1211 24.6055 45.1211 24.8105V29.293L49.1113 24.9688C49.1113 24.7109 49.0703 24.5205 48.9883 24.3975C48.9062 24.2744 48.7832 24.1777 48.6191 24.1074C48.4668 24.0371 48.3145 23.9902 48.1621 23.9668C48.0156 23.9434 47.8809 23.9258 47.7578 23.9141V23.334H51.9678V23.9141C51.7979 23.9258 51.6484 23.9404 51.5195 23.958C51.3965 23.9756 51.2822 23.9961 51.1768 24.0195C51.0127 24.0664 50.8896 24.1602 50.8076 24.3008C50.7314 24.4355 50.6934 24.6055 50.6934 24.8105V30.4355C50.6934 30.6406 50.7285 30.8076 50.7988 30.9365C50.8691 31.0596 50.9893 31.1562 51.1592 31.2266C51.2822 31.2852 51.4141 31.3291 51.5547 31.3584C51.7012 31.3877 51.8506 31.4082 52.0029 31.4199V32ZM60.8184 32H53.2686V31.4199C53.4033 31.4082 53.541 31.3965 53.6816 31.3848C53.8281 31.373 53.9541 31.3496 54.0596 31.3145C54.2236 31.2617 54.3438 31.1709 54.4199 31.042C54.502 30.9072 54.543 30.7344 54.543 30.5234V24.8984C54.543 24.7051 54.5078 24.5439 54.4375 24.415C54.3672 24.2861 54.2471 24.1836 54.0771 24.1074C53.9248 24.0371 53.7754 23.9902 53.6289 23.9668C53.4883 23.9434 53.3564 23.9258 53.2334 23.9141V23.334H57.4697V23.9141C57.2998 23.9258 57.1533 23.9404 57.0303 23.958C56.9072 23.9756 56.793 23.9961 56.6875 24.0195C56.5234 24.0664 56.3975 24.1602 56.3096 24.3008C56.2217 24.4414 56.1777 24.6113 56.1777 24.8105V30.4707C56.1777 30.7871 56.251 31.0068 56.3975 31.1299C56.5439 31.2471 56.7461 31.3086 57.0039 31.3145C57.1504 31.3145 57.3203 31.3203 57.5137 31.332C57.707 31.3379 57.9268 31.3408 58.1729 31.3408C58.3604 31.3408 58.5537 31.3379 58.7529 31.332C58.958 31.3262 59.1572 31.3203 59.3506 31.3145C59.5967 31.3086 59.7461 31.2559 59.7988 31.1562C59.8574 31.0508 59.8867 30.875 59.8867 30.6289V24.8984C59.8867 24.7051 59.8457 24.5439 59.7637 24.415C59.6816 24.2803 59.5586 24.1777 59.3945 24.1074C59.2422 24.0371 59.0957 23.9902 58.9551 23.9668C58.8203 23.9434 58.6885 23.9258 58.5596 23.9141V23.334H62.7959V23.9141C62.626 23.9258 62.4766 23.9404 62.3477 23.958C62.2246 23.9756 62.1104 23.9961 62.0049 24.0195C61.8408 24.0664 61.7178 24.1602 61.6357 24.3008C61.5596 24.4355 61.5215 24.6055 61.5215 24.8105V30.4531C61.5215 30.7637 61.5801 30.9863 61.6973 31.1211C61.8203 31.25 62.0752 31.3145 62.4619 31.3145H63.0244V34.5664H62.3916C62.2744 33.9805 62.0664 33.4238 61.7676 32.8965C61.4746 32.3691 61.1582 32.0703 60.8184 32ZM72.3057 31.8418C72.0303 31.9414 71.7871 32.0205 71.5762 32.0791C71.3711 32.1436 71.1367 32.1758 70.873 32.1758C70.416 32.1758 70.0498 32.0703 69.7744 31.8594C69.5049 31.6426 69.332 31.3291 69.2559 30.9189H69.2031C68.8223 31.3408 68.4121 31.6631 67.9727 31.8857C67.5391 32.1084 67.0146 32.2197 66.3994 32.2197C65.749 32.2197 65.2129 32.0205 64.791 31.6221C64.375 31.2236 64.167 30.7021 64.167 30.0576C64.167 29.7236 64.2139 29.4248 64.3076 29.1611C64.4014 28.8975 64.542 28.6602 64.7295 28.4492C64.876 28.2734 65.0693 28.1182 65.3096 27.9834C65.5498 27.8428 65.7754 27.7314 65.9863 27.6494C66.25 27.5498 66.7832 27.3652 67.5859 27.0957C68.3945 26.8262 68.9395 26.6152 69.2207 26.4629V25.5928C69.2207 25.5166 69.2031 25.3701 69.168 25.1533C69.1387 24.9365 69.0713 24.7314 68.9658 24.5381C68.8486 24.3213 68.6816 24.1338 68.4648 23.9756C68.2539 23.8115 67.9521 23.7295 67.5596 23.7295C67.29 23.7295 67.0381 23.7764 66.8037 23.8701C66.5752 23.958 66.4141 24.0518 66.3203 24.1514C66.3203 24.2686 66.3467 24.4414 66.3994 24.6699C66.458 24.8984 66.4873 25.1094 66.4873 25.3027C66.4873 25.5078 66.3936 25.6953 66.2061 25.8652C66.0244 26.0352 65.7695 26.1201 65.4414 26.1201C65.1484 26.1201 64.9316 26.0176 64.791 25.8125C64.6562 25.6016 64.5889 25.3672 64.5889 25.1094C64.5889 24.8398 64.6826 24.582 64.8701 24.3359C65.0635 24.0898 65.3125 23.8701 65.6172 23.6768C65.8809 23.5127 66.2002 23.375 66.5752 23.2637C66.9502 23.1465 67.3164 23.0879 67.6738 23.0879C68.166 23.0879 68.5938 23.123 68.957 23.1934C69.3262 23.2578 69.6602 23.4014 69.959 23.624C70.2578 23.8408 70.4834 24.1367 70.6357 24.5117C70.7939 24.8809 70.873 25.3584 70.873 25.9443C70.873 26.7822 70.8643 27.5264 70.8467 28.1768C70.8291 28.8213 70.8203 29.5273 70.8203 30.2949C70.8203 30.5234 70.8584 30.7051 70.9346 30.8398C71.0166 30.9746 71.1396 31.0889 71.3037 31.1826C71.3916 31.2354 71.5293 31.2646 71.7168 31.2705C71.9102 31.2764 72.1064 31.2793 72.3057 31.2793V31.8418ZM69.2383 27.2012C68.7402 27.3477 68.3037 27.4912 67.9287 27.6318C67.5537 27.7725 67.2051 27.9482 66.8828 28.1592C66.5898 28.3584 66.3584 28.5957 66.1885 28.8711C66.0186 29.1406 65.9336 29.4629 65.9336 29.8379C65.9336 30.3242 66.0596 30.6816 66.3115 30.9102C66.5693 31.1387 66.8945 31.2529 67.2871 31.2529C67.7031 31.2529 68.0693 31.1533 68.3857 30.9541C68.7021 30.749 68.9688 30.5088 69.1855 30.2334L69.2383 27.2012Z" fill="white"/>
</svg>
