<svg width="233" height="234" viewBox="0 0 233 234" fill="none" xmlns="http://www.w3.org/2000/svg">
<g clip-path="url(#clip0_308_61)">
<path d="M10.5111 45.922V55H8.40313V47.724H3.93213V55H1.80713V45.922H10.5111ZM13.3784 45.922H15.5034V49.611H20.0764V45.922H22.2014V55H20.0764V51.413H15.5034V55H13.3784V45.922Z" fill="#4A535C"/>
<path d="M84.4515 102.879C85.2335 102.879 85.9248 103.026 86.5255 103.321C87.1375 103.616 87.6135 104.035 87.9535 104.579C88.2935 105.112 88.4635 105.735 88.4635 106.449C88.4635 107.174 88.2878 107.815 87.9365 108.37C87.5852 108.925 87.0978 109.356 86.4745 109.662C85.8625 109.957 85.1712 110.104 84.4005 110.104C82.8252 110.104 81.6182 109.588 80.7795 108.557C79.9408 107.514 79.5215 106.047 79.5215 104.154C79.5215 102.828 79.7482 101.706 80.2015 100.788C80.6548 99.87 81.2895 99.179 82.1055 98.714C82.9215 98.238 83.8735 98 84.9615 98C86.1402 98 87.0808 98.215 87.7835 98.646L87.2905 99.632C86.7238 99.258 85.9532 99.071 84.9785 99.071C83.6638 99.071 82.6325 99.49 81.8845 100.329C81.1365 101.156 80.7625 102.363 80.7625 103.95C80.7625 104.233 80.7795 104.556 80.8135 104.919C81.1082 104.273 81.5785 103.774 82.2245 103.423C82.8705 103.06 83.6128 102.879 84.4515 102.879ZM84.3495 109.067C85.2108 109.067 85.9078 108.835 86.4405 108.37C86.9845 107.894 87.2565 107.265 87.2565 106.483C87.2565 105.701 86.9845 105.078 86.4405 104.613C85.9078 104.148 85.1825 103.916 84.2645 103.916C83.6638 103.916 83.1312 104.029 82.6665 104.256C82.2132 104.483 81.8562 104.794 81.5955 105.191C81.3348 105.588 81.2045 106.03 81.2045 106.517C81.2045 106.97 81.3235 107.39 81.5615 107.775C81.8108 108.16 82.1735 108.472 82.6495 108.71C83.1255 108.948 83.6922 109.067 84.3495 109.067Z" fill="#4A535C"/>
<path d="M80.9245 130V141.9H79.7005V131.088H76.8955V130H80.9245ZM87.815 135.1C89.0617 135.168 90.008 135.508 90.654 136.12C91.3114 136.721 91.64 137.508 91.64 138.483C91.64 139.163 91.4757 139.769 91.147 140.302C90.8184 140.823 90.331 141.237 89.685 141.543C89.039 141.849 88.2514 142.002 87.322 142.002C86.4607 142.002 85.6447 141.866 84.874 141.594C84.1147 141.311 83.5027 140.937 83.0381 140.472L83.633 139.503C84.0297 139.911 84.5567 140.245 85.214 140.506C85.8714 140.755 86.574 140.88 87.322 140.88C88.2967 140.88 89.0504 140.67 89.583 140.251C90.1157 139.82 90.382 139.231 90.382 138.483C90.382 137.746 90.1157 137.168 89.583 136.749C89.0504 136.33 88.2457 136.12 87.169 136.12H86.319V135.219L89.617 131.088H83.5311V130H91.181V130.867L87.815 135.1Z" fill="#4A535C"/>
<path d="M84.8099 172.914V174.002H76.463V173.135L81.41 168.29C82.0333 167.678 82.4526 167.151 82.668 166.709C82.8946 166.256 83.008 165.802 83.008 165.349C83.008 164.646 82.7643 164.102 82.277 163.717C81.801 163.32 81.1153 163.122 80.22 163.122C78.826 163.122 77.7436 163.564 76.973 164.448L76.106 163.7C76.5706 163.156 77.16 162.737 77.874 162.442C78.5993 162.147 79.4153 162 80.322 162C81.5346 162 82.4923 162.289 83.195 162.867C83.909 163.434 84.266 164.216 84.266 165.213C84.266 165.825 84.13 166.414 83.858 166.981C83.586 167.548 83.0703 168.199 82.311 168.936L78.265 172.914H84.8099ZM91.0226 174.104C90.1046 174.104 89.283 173.86 88.5576 173.373C87.8436 172.886 87.2826 172.189 86.8746 171.282C86.478 170.364 86.2796 169.287 86.2796 168.052C86.2796 166.817 86.478 165.746 86.8746 164.839C87.2826 163.921 87.8436 163.218 88.5576 162.731C89.283 162.244 90.1046 162 91.0226 162C91.9406 162 92.7566 162.244 93.4706 162.731C94.196 163.218 94.7626 163.921 95.1706 164.839C95.5786 165.746 95.7826 166.817 95.7826 168.052C95.7826 169.287 95.5786 170.364 95.1706 171.282C94.7626 172.189 94.196 172.886 93.4706 173.373C92.7566 173.86 91.9406 174.104 91.0226 174.104ZM91.0226 172.982C91.714 172.982 92.3203 172.789 92.8416 172.404C93.3743 172.019 93.788 171.458 94.0826 170.721C94.3773 169.984 94.5246 169.095 94.5246 168.052C94.5246 167.009 94.3773 166.12 94.0826 165.383C93.788 164.646 93.3743 164.085 92.8416 163.7C92.3203 163.315 91.714 163.122 91.0226 163.122C90.3313 163.122 89.7193 163.315 89.1866 163.7C88.6653 164.085 88.2573 164.646 87.9626 165.383C87.668 166.12 87.5206 167.009 87.5206 168.052C87.5206 169.095 87.668 169.984 87.9626 170.721C88.2573 171.458 88.6653 172.019 89.1866 172.404C89.7193 172.789 90.3313 172.982 91.0226 172.982Z" fill="#4A535C"/>
<path d="M84.6879 204.914V206.002H76.3409V205.135L81.2879 200.29C81.9112 199.678 82.3305 199.151 82.5459 198.709C82.7725 198.256 82.8859 197.802 82.8859 197.349C82.8859 196.646 82.6422 196.102 82.1549 195.717C81.6789 195.32 80.9932 195.122 80.0979 195.122C78.7039 195.122 77.6215 195.564 76.8509 196.448L75.9839 195.7C76.4485 195.156 77.0379 194.737 77.7519 194.442C78.4772 194.147 79.2932 194 80.1999 194C81.4125 194 82.3702 194.289 83.0729 194.867C83.7869 195.434 84.1439 196.216 84.1439 197.213C84.1439 197.825 84.0079 198.414 83.7359 198.981C83.4639 199.548 82.9482 200.199 82.1889 200.936L78.1429 204.914H84.6879ZM94.5556 194.102V194.969L89.5746 206.002H88.2486L93.1446 195.19H87.0246V197.417H85.8176V194.102H94.5556Z" fill="#4A535C"/>
<path d="M44.3783 50.274C45.5003 50.614 46.0613 51.3393 46.0613 52.45C46.0613 53.266 45.7553 53.895 45.1433 54.337C44.5313 54.779 43.6246 55 42.4233 55H37.7993V45.922H42.2363C43.347 45.922 44.214 46.126 44.8373 46.534C45.4606 46.942 45.7723 47.52 45.7723 48.268C45.7723 48.7327 45.6476 49.135 45.3983 49.475C45.1603 49.815 44.8203 50.0813 44.3783 50.274ZM39.8223 49.713H42.0493C43.1486 49.713 43.6983 49.3333 43.6983 48.574C43.6983 47.8373 43.1486 47.469 42.0493 47.469H39.8223V49.713ZM42.2533 53.453C43.4206 53.453 44.0043 53.0733 44.0043 52.314C44.0043 51.9173 43.8683 51.6227 43.5963 51.43C43.3243 51.226 42.8993 51.124 42.3213 51.124H39.8223V53.453H42.2533ZM55.5157 47.724H52.3367V55H50.2117V47.724H47.0157V45.922H55.5157V47.724Z" fill="#4A535C"/>
<path d="M123.259 98V98.867L118.278 109.9H116.952L121.848 99.088H115.728V101.315H114.521V98H123.259Z" fill="#4A535C"/>
<path d="M116.103 130V141.9H114.879V131.088H112.074V130H116.103ZM129.062 138.772H126.682V141.9H125.458V138.772H118.743V137.888L125.05 130H126.41L120.324 137.684H125.492V134.93H126.682V137.684H129.062V138.772Z" fill="#4A535C"/>
<path d="M122.81 172.914V174.002H114.463V173.135L119.41 168.29C120.033 167.678 120.453 167.151 120.668 166.709C120.895 166.256 121.008 165.802 121.008 165.349C121.008 164.646 120.764 164.102 120.277 163.717C119.801 163.32 119.115 163.122 118.22 163.122C116.826 163.122 115.744 163.564 114.973 164.448L114.106 163.7C114.571 163.156 115.16 162.737 115.874 162.442C116.599 162.147 117.415 162 118.322 162C119.535 162 120.492 162.289 121.195 162.867C121.909 163.434 122.266 164.216 122.266 165.213C122.266 165.825 122.13 166.414 121.858 166.981C121.586 167.548 121.07 168.199 120.311 168.936L116.265 172.914H122.81ZM127.644 162.102V174.002H126.42V163.19H123.615V162.102H127.644Z" fill="#4A535C"/>
<path d="M119.74 204.914V206.002H111.393V205.135L116.34 200.29C116.963 199.678 117.382 199.151 117.598 198.709C117.824 198.256 117.938 197.802 117.938 197.349C117.938 196.646 117.694 196.102 117.207 195.717C116.731 195.32 116.045 195.122 115.15 195.122C113.756 195.122 112.673 195.564 111.903 196.448L111.036 195.7C111.5 195.156 112.09 194.737 112.804 194.442C113.529 194.147 114.345 194 115.252 194C116.464 194 117.422 194.289 118.125 194.867C118.839 195.434 119.196 196.216 119.196 197.213C119.196 197.825 119.06 198.414 118.788 198.981C118.516 199.548 118 200.199 117.241 200.936L113.195 204.914H119.74ZM128.093 199.763C128.841 200.012 129.413 200.386 129.81 200.885C130.218 201.384 130.422 201.984 130.422 202.687C130.422 203.378 130.235 203.985 129.861 204.506C129.487 205.016 128.948 205.413 128.246 205.696C127.554 205.968 126.738 206.104 125.798 206.104C124.37 206.104 123.248 205.798 122.432 205.186C121.616 204.574 121.208 203.741 121.208 202.687C121.208 201.973 121.4 201.372 121.786 200.885C122.182 200.386 122.755 200.012 123.503 199.763C122.891 199.525 122.426 199.185 122.109 198.743C121.791 198.29 121.633 197.757 121.633 197.145C121.633 196.182 122.007 195.417 122.755 194.85C123.514 194.283 124.528 194 125.798 194C126.636 194 127.367 194.13 127.991 194.391C128.625 194.64 129.118 195.003 129.47 195.479C129.821 195.955 129.997 196.51 129.997 197.145C129.997 197.757 129.832 198.29 129.504 198.743C129.175 199.185 128.705 199.525 128.093 199.763ZM122.857 197.179C122.857 197.836 123.117 198.358 123.639 198.743C124.16 199.128 124.88 199.321 125.798 199.321C126.716 199.321 127.435 199.128 127.957 198.743C128.489 198.358 128.756 197.842 128.756 197.196C128.756 196.527 128.484 196 127.94 195.615C127.407 195.23 126.693 195.037 125.798 195.037C124.891 195.037 124.171 195.23 123.639 195.615C123.117 196 122.857 196.522 122.857 197.179ZM125.798 205.067C126.852 205.067 127.673 204.852 128.263 204.421C128.863 203.99 129.164 203.407 129.164 202.67C129.164 201.933 128.863 201.355 128.263 200.936C127.673 200.505 126.852 200.29 125.798 200.29C124.755 200.29 123.933 200.505 123.333 200.936C122.743 201.355 122.449 201.933 122.449 202.67C122.449 203.418 122.743 204.007 123.333 204.438C123.922 204.857 124.744 205.067 125.798 205.067Z" fill="#4A535C"/>
<path d="M76.7431 55.1189C75.8024 55.1189 74.9581 54.9206 74.2101 54.5239C73.4621 54.1272 72.8784 53.5776 72.4591 52.8749C72.0397 52.1609 71.8301 51.3562 71.8301 50.4609C71.8301 49.5656 72.0397 48.7666 72.4591 48.0639C72.8784 47.3612 73.4564 46.8116 74.1931 46.4149C74.9411 46.0182 75.7911 45.8199 76.7431 45.8199C77.6384 45.8199 78.4204 46.0012 79.0891 46.3639C79.7691 46.7266 80.2791 47.2479 80.6191 47.9279L78.9871 48.8799C78.7264 48.4606 78.3977 48.1489 78.0011 47.9449C77.6157 47.7296 77.1907 47.6219 76.7261 47.6219C75.9327 47.6219 75.2754 47.8826 74.7541 48.4039C74.2327 48.9139 73.9721 49.5996 73.9721 50.4609C73.9721 51.3222 74.2271 52.0136 74.7371 52.5349C75.2584 53.0449 75.9214 53.2999 76.7261 53.2999C77.1907 53.2999 77.6157 53.1979 78.0011 52.9939C78.3977 52.7786 78.7264 52.4612 78.9871 52.0419L80.6191 52.9939C80.2677 53.6739 79.7521 54.2009 79.0721 54.5749C78.4034 54.9376 77.6271 55.1189 76.7431 55.1189ZM87.522 45.8199C88.406 45.8199 89.1937 46.0126 89.885 46.3979C90.5877 46.7832 91.1373 47.3272 91.534 48.0299C91.9307 48.7326 92.129 49.5429 92.129 50.4609C92.129 51.3789 91.9307 52.1949 91.534 52.9089C91.1373 53.6116 90.5877 54.1556 89.885 54.5409C89.1937 54.9262 88.406 55.1189 87.522 55.1189C86.298 55.1189 85.329 54.7109 84.615 53.8949V58.2979H82.49V45.9219H84.513V47.1119C84.8643 46.6812 85.295 46.3582 85.805 46.1429C86.3263 45.9276 86.8987 45.8199 87.522 45.8199ZM87.284 53.2999C88.066 53.2999 88.7063 53.0392 89.205 52.5179C89.715 51.9966 89.97 51.3109 89.97 50.4609C89.97 49.6109 89.715 48.9252 89.205 48.4039C88.7063 47.8826 88.066 47.6219 87.284 47.6219C86.774 47.6219 86.315 47.7409 85.907 47.9789C85.499 48.2056 85.176 48.5342 84.938 48.9649C84.7 49.3956 84.581 49.8942 84.581 50.4609C84.581 51.0276 84.7 51.5262 84.938 51.9569C85.176 52.3876 85.499 52.7219 85.907 52.9599C86.315 53.1866 86.774 53.2999 87.284 53.2999Z" fill="#4A535C"/>
<path d="M153.029 70.1019V82.0019H151.805V71.1899H149V70.1019H153.029Z" fill="#4A535C"/>
<path d="M12.8679 130.002V141.902H11.6439V131.09H8.83887V130.002H12.8679Z" fill="#4A535C"/>
<path d="M19.8679 130.002V141.902H18.6439V131.09H15.8389V130.002H19.8679Z" fill="#4A535C"/>
<path d="M152.885 103.763C153.633 104.012 154.205 104.386 154.602 104.885C155.01 105.384 155.214 105.984 155.214 106.687C155.214 107.378 155.027 107.985 154.653 108.506C154.279 109.016 153.741 109.413 153.038 109.696C152.347 109.968 151.531 110.104 150.59 110.104C149.162 110.104 148.04 109.798 147.224 109.186C146.408 108.574 146 107.741 146 106.687C146 105.973 146.193 105.372 146.578 104.885C146.975 104.386 147.547 104.012 148.295 103.763C147.683 103.525 147.218 103.185 146.901 102.743C146.584 102.29 146.425 101.757 146.425 101.145C146.425 100.182 146.799 99.417 147.547 98.85C148.306 98.283 149.321 98 150.59 98C151.429 98 152.16 98.13 152.783 98.391C153.418 98.64 153.911 99.003 154.262 99.479C154.613 99.955 154.789 100.51 154.789 101.145C154.789 101.757 154.625 102.29 154.296 102.743C153.967 103.185 153.497 103.525 152.885 103.763ZM147.649 101.179C147.649 101.836 147.91 102.358 148.431 102.743C148.952 103.128 149.672 103.321 150.59 103.321C151.508 103.321 152.228 103.128 152.749 102.743C153.282 102.358 153.548 101.842 153.548 101.196C153.548 100.527 153.276 100 152.732 99.615C152.199 99.23 151.485 99.037 150.59 99.037C149.683 99.037 148.964 99.23 148.431 99.615C147.91 100 147.649 100.522 147.649 101.179ZM150.59 109.067C151.644 109.067 152.466 108.852 153.055 108.421C153.656 107.99 153.956 107.407 153.956 106.67C153.956 105.933 153.656 105.355 153.055 104.936C152.466 104.505 151.644 104.29 150.59 104.29C149.547 104.29 148.726 104.505 148.125 104.936C147.536 105.355 147.241 105.933 147.241 106.67C147.241 107.418 147.536 108.007 148.125 108.438C148.714 108.857 149.536 109.067 150.59 109.067Z" fill="#4A535C"/>
<path d="M148.029 130.102V142.002H146.805V131.19H144V130.102H148.029ZM154.001 134.981C155.724 134.981 156.976 135.293 157.758 135.916C158.552 136.528 158.948 137.389 158.948 138.5C158.948 139.191 158.784 139.809 158.455 140.353C158.138 140.897 157.656 141.328 157.01 141.645C156.364 141.951 155.571 142.104 154.63 142.104C153.78 142.104 152.97 141.968 152.199 141.696C151.44 141.413 150.828 141.039 150.363 140.574L150.958 139.605C151.355 140.013 151.876 140.347 152.522 140.608C153.168 140.857 153.865 140.982 154.613 140.982C155.599 140.982 156.359 140.761 156.891 140.319C157.435 139.877 157.707 139.288 157.707 138.551C157.707 137.735 157.401 137.117 156.789 136.698C156.189 136.279 155.169 136.069 153.729 136.069H151.196L151.808 130.102H158.319V131.19H152.879L152.471 134.981H154.001Z" fill="#4A535C"/>
<path d="M151.704 172.914V174.002H143.357V173.135L148.304 168.29C148.927 167.678 149.347 167.151 149.562 166.709C149.789 166.256 149.902 165.802 149.902 165.349C149.902 164.646 149.658 164.102 149.171 163.717C148.695 163.32 148.009 163.122 147.114 163.122C145.72 163.122 144.638 163.564 143.867 164.448L143 163.7C143.465 163.156 144.054 162.737 144.768 162.442C145.493 162.147 146.309 162 147.216 162C148.429 162 149.386 162.289 150.089 162.867C150.803 163.434 151.16 164.216 151.16 165.213C151.16 165.825 151.024 166.414 150.752 166.981C150.48 167.548 149.964 168.199 149.205 168.936L145.159 172.914H151.704ZM161.366 172.914V174.002H153.019V173.135L157.966 168.29C158.589 167.678 159.009 167.151 159.224 166.709C159.451 166.256 159.564 165.802 159.564 165.349C159.564 164.646 159.32 164.102 158.833 163.717C158.357 163.32 157.671 163.122 156.776 163.122C155.382 163.122 154.3 163.564 153.529 164.448L152.662 163.7C153.127 163.156 153.716 162.737 154.43 162.442C155.155 162.147 155.971 162 156.878 162C158.091 162 159.048 162.289 159.751 162.867C160.465 163.434 160.822 164.216 160.822 165.213C160.822 165.825 160.686 166.414 160.414 166.981C160.142 167.548 159.626 168.199 158.867 168.936L154.821 172.914H161.366Z" fill="black"/>
<path d="M152.704 204.914V206.002H144.357V205.135L149.304 200.29C149.927 199.678 150.347 199.151 150.562 198.709C150.789 198.256 150.902 197.802 150.902 197.349C150.902 196.646 150.658 196.102 150.171 195.717C149.695 195.32 149.009 195.122 148.114 195.122C146.72 195.122 145.638 195.564 144.867 196.448L144 195.7C144.465 195.156 145.054 194.737 145.768 194.442C146.493 194.147 147.309 194 148.216 194C149.429 194 150.386 194.289 151.089 194.867C151.803 195.434 152.16 196.216 152.16 197.213C152.16 197.825 152.024 198.414 151.752 198.981C151.48 199.548 150.964 200.199 150.205 200.936L146.159 204.914H152.704ZM157.946 194C159.521 194 160.728 194.521 161.567 195.564C162.406 196.595 162.825 198.057 162.825 199.95C162.825 201.276 162.598 202.398 162.145 203.316C161.692 204.234 161.057 204.931 160.241 205.407C159.425 205.872 158.473 206.104 157.385 206.104C156.206 206.104 155.266 205.889 154.563 205.458L155.056 204.472C155.623 204.846 156.393 205.033 157.368 205.033C158.683 205.033 159.714 204.619 160.462 203.792C161.21 202.953 161.584 201.741 161.584 200.154C161.584 199.859 161.567 199.536 161.533 199.185C161.238 199.831 160.768 200.335 160.122 200.698C159.476 201.049 158.734 201.225 157.895 201.225C157.113 201.225 156.416 201.078 155.804 200.783C155.203 200.488 154.733 200.075 154.393 199.542C154.053 198.998 153.883 198.369 153.883 197.655C153.883 196.93 154.059 196.289 154.41 195.734C154.761 195.179 155.243 194.754 155.855 194.459C156.478 194.153 157.175 194 157.946 194ZM158.082 200.188C158.683 200.188 159.21 200.075 159.663 199.848C160.128 199.621 160.49 199.31 160.751 198.913C161.012 198.516 161.142 198.074 161.142 197.587C161.142 197.134 161.017 196.714 160.768 196.329C160.53 195.944 160.173 195.632 159.697 195.394C159.221 195.156 158.654 195.037 157.997 195.037C157.136 195.037 156.433 195.275 155.889 195.751C155.356 196.216 155.09 196.839 155.09 197.621C155.09 198.403 155.356 199.026 155.889 199.491C156.433 199.956 157.164 200.188 158.082 200.188Z" fill="#4A535C"/>
<path d="M115.483 45.922V55H113.358V51.481C112.486 51.9003 111.573 52.11 110.621 52.11C109.454 52.11 108.559 51.8437 107.935 51.311C107.312 50.767 107 49.9397 107 48.829V45.922H109.125V48.693C109.125 49.271 109.295 49.7017 109.635 49.985C109.975 50.2683 110.457 50.41 111.08 50.41C111.874 50.41 112.633 50.24 113.358 49.9V45.922H115.483ZM125.532 47.724H122.353V55H120.228V47.724H117.032V45.922H125.532V47.724Z" fill="#4A535C"/>
<path d="M190.598 80.914V82.002H182.251V81.135L187.198 76.29C187.821 75.678 188.241 75.151 188.456 74.709C188.683 74.2557 188.796 73.8023 188.796 73.349C188.796 72.6463 188.552 72.1023 188.065 71.717C187.589 71.3203 186.903 71.122 186.008 71.122C184.614 71.122 183.532 71.564 182.761 72.448L181.894 71.7C182.359 71.156 182.948 70.7367 183.662 70.442C184.387 70.1473 185.203 70 186.11 70C187.323 70 188.28 70.289 188.983 70.867C189.697 71.4337 190.054 72.2157 190.054 73.213C190.054 73.825 189.918 74.4143 189.646 74.981C189.374 75.5477 188.858 76.1993 188.099 76.936L184.053 80.914H190.598Z" fill="#4A535C"/>
<path d="M185.015 98C186.591 98 187.798 98.521 188.636 99.564C189.475 100.595 189.894 102.057 189.894 103.95C189.894 105.276 189.668 106.398 189.214 107.316C188.761 108.234 188.126 108.931 187.31 109.407C186.494 109.872 185.542 110.104 184.454 110.104C183.276 110.104 182.335 109.889 181.632 109.458L182.125 108.472C182.692 108.846 183.463 109.033 184.437 109.033C185.752 109.033 186.783 108.619 187.531 107.792C188.279 106.953 188.653 105.741 188.653 104.154C188.653 103.859 188.636 103.536 188.602 103.185C188.308 103.831 187.837 104.335 187.191 104.698C186.545 105.049 185.803 105.225 184.964 105.225C184.182 105.225 183.485 105.078 182.873 104.783C182.273 104.488 181.802 104.075 181.462 103.542C181.122 102.998 180.952 102.369 180.952 101.655C180.952 100.93 181.128 100.289 181.479 99.734C181.831 99.179 182.312 98.754 182.924 98.459C183.548 98.153 184.245 98 185.015 98ZM185.151 104.188C185.752 104.188 186.279 104.075 186.732 103.848C187.197 103.621 187.56 103.31 187.82 102.913C188.081 102.516 188.211 102.074 188.211 101.587C188.211 101.134 188.087 100.714 187.837 100.329C187.599 99.944 187.242 99.632 186.766 99.394C186.29 99.156 185.724 99.037 185.066 99.037C184.205 99.037 183.502 99.275 182.958 99.751C182.426 100.216 182.159 100.839 182.159 101.621C182.159 102.403 182.426 103.026 182.958 103.491C183.502 103.956 184.233 104.188 185.151 104.188Z" fill="#4A535C"/>
<path d="M183.164 130.102V142.002H181.94V131.19H179.135V130.102H183.164ZM190.939 134.879C191.721 134.879 192.412 135.026 193.013 135.321C193.625 135.616 194.101 136.035 194.441 136.579C194.781 137.112 194.951 137.735 194.951 138.449C194.951 139.174 194.775 139.815 194.424 140.37C194.072 140.925 193.585 141.356 192.962 141.662C192.35 141.957 191.658 142.104 190.888 142.104C189.312 142.104 188.105 141.588 187.267 140.557C186.428 139.514 186.009 138.047 186.009 136.154C186.009 134.828 186.235 133.706 186.689 132.788C187.142 131.87 187.777 131.179 188.593 130.714C189.409 130.238 190.361 130 191.449 130C192.627 130 193.568 130.215 194.271 130.646L193.778 131.632C193.211 131.258 192.44 131.071 191.466 131.071C190.151 131.071 189.12 131.49 188.372 132.329C187.624 133.156 187.25 134.363 187.25 135.95C187.25 136.233 187.267 136.556 187.301 136.919C187.595 136.273 188.066 135.774 188.712 135.423C189.358 135.06 190.1 134.879 190.939 134.879ZM190.837 141.067C191.698 141.067 192.395 140.835 192.928 140.37C193.472 139.894 193.744 139.265 193.744 138.483C193.744 137.701 193.472 137.078 192.928 136.613C192.395 136.148 191.67 135.916 190.752 135.916C190.151 135.916 189.618 136.029 189.154 136.256C188.7 136.483 188.343 136.794 188.083 137.191C187.822 137.588 187.692 138.03 187.692 138.517C187.692 138.97 187.811 139.39 188.049 139.775C188.298 140.16 188.661 140.472 189.137 140.71C189.613 140.948 190.179 141.067 190.837 141.067Z" fill="#4A535C"/>
<path d="M186.737 172.914V174.002H178.39V173.135L183.337 168.29C183.96 167.678 184.38 167.151 184.595 166.709C184.822 166.256 184.935 165.802 184.935 165.349C184.935 164.646 184.691 164.102 184.204 163.717C183.728 163.32 183.042 163.122 182.147 163.122C180.753 163.122 179.671 163.564 178.9 164.448L178.033 163.7C178.498 163.156 179.087 162.737 179.801 162.442C180.526 162.147 181.342 162 182.249 162C183.462 162 184.419 162.289 185.122 162.867C185.836 163.434 186.193 164.216 186.193 165.213C186.193 165.825 186.057 166.414 185.785 166.981C185.513 167.548 184.997 168.199 184.238 168.936L180.192 172.914H186.737ZM192.319 167.202C193.566 167.27 194.512 167.61 195.158 168.222C195.816 168.823 196.144 169.61 196.144 170.585C196.144 171.265 195.98 171.871 195.651 172.404C195.323 172.925 194.835 173.339 194.189 173.645C193.543 173.951 192.756 174.104 191.826 174.104C190.965 174.104 190.149 173.968 189.378 173.696C188.619 173.413 188.007 173.039 187.542 172.574L188.137 171.605C188.534 172.013 189.061 172.347 189.718 172.608C190.376 172.857 191.078 172.982 191.826 172.982C192.801 172.982 193.555 172.772 194.087 172.353C194.62 171.922 194.886 171.333 194.886 170.585C194.886 169.848 194.62 169.27 194.087 168.851C193.555 168.432 192.75 168.222 191.673 168.222H190.823V167.321L194.121 163.19H188.035V162.102H195.685V162.969L192.319 167.202Z" fill="#4A535C"/>
<path d="M182.777 199.202C184.024 199.27 184.97 199.61 185.616 200.222C186.274 200.823 186.602 201.61 186.602 202.585C186.602 203.265 186.438 203.871 186.109 204.404C185.781 204.925 185.293 205.339 184.647 205.645C184.001 205.951 183.214 206.104 182.284 206.104C181.423 206.104 180.607 205.968 179.836 205.696C179.077 205.413 178.465 205.039 178 204.574L178.595 203.605C178.992 204.013 179.519 204.347 180.176 204.608C180.834 204.857 181.536 204.982 182.284 204.982C183.259 204.982 184.013 204.772 184.545 204.353C185.078 203.922 185.344 203.333 185.344 202.585C185.344 201.848 185.078 201.27 184.545 200.851C184.013 200.432 183.208 200.222 182.131 200.222H181.281V199.321L184.579 195.19H178.493V194.102H186.143V194.969L182.777 199.202ZM193.07 206.104C192.152 206.104 191.33 205.86 190.605 205.373C189.891 204.886 189.33 204.189 188.922 203.282C188.525 202.364 188.327 201.287 188.327 200.052C188.327 198.817 188.525 197.746 188.922 196.839C189.33 195.921 189.891 195.218 190.605 194.731C191.33 194.244 192.152 194 193.07 194C193.988 194 194.804 194.244 195.518 194.731C196.243 195.218 196.81 195.921 197.218 196.839C197.626 197.746 197.83 198.817 197.83 200.052C197.83 201.287 197.626 202.364 197.218 203.282C196.81 204.189 196.243 204.886 195.518 205.373C194.804 205.86 193.988 206.104 193.07 206.104ZM193.07 204.982C193.761 204.982 194.368 204.789 194.889 204.404C195.422 204.019 195.835 203.458 196.13 202.721C196.425 201.984 196.572 201.095 196.572 200.052C196.572 199.009 196.425 198.12 196.13 197.383C195.835 196.646 195.422 196.085 194.889 195.7C194.368 195.315 193.761 195.122 193.07 195.122C192.379 195.122 191.767 195.315 191.234 195.7C190.713 196.085 190.305 196.646 190.01 197.383C189.715 198.12 189.568 199.009 189.568 200.052C189.568 201.095 189.715 201.984 190.01 202.721C190.305 203.458 190.713 204.019 191.234 204.404C191.767 204.789 192.379 204.982 193.07 204.982Z" fill="#4A535C"/>
<path d="M150.48 45.922V55H148.372V47.724H143.901V55H141.776V45.922H150.48ZM160.538 47.724H157.359V55H155.234V47.724H152.038V45.922H160.538V47.724Z" fill="#4A535C"/>
<path d="M219.55 75.2019C220.797 75.2699 221.743 75.6099 222.389 76.2219C223.046 76.8226 223.375 77.6102 223.375 78.5849C223.375 79.2649 223.211 79.8712 222.882 80.4039C222.553 80.9252 222.066 81.3389 221.42 81.6449C220.774 81.9509 219.986 82.1039 219.057 82.1039C218.196 82.1039 217.38 81.9679 216.609 81.6959C215.85 81.4126 215.238 81.0386 214.773 80.5739L215.368 79.6049C215.765 80.0129 216.292 80.3472 216.949 80.6079C217.606 80.8572 218.309 80.9819 219.057 80.9819C220.032 80.9819 220.785 80.7722 221.318 80.3529C221.851 79.9222 222.117 79.3329 222.117 78.5849C222.117 77.8482 221.851 77.2702 221.318 76.8509C220.785 76.4316 219.981 76.2219 218.904 76.2219H218.054V75.3209L221.352 71.1899H215.266V70.1019H222.916V70.9689L219.55 75.2019Z" fill="#4A535C"/>
<path d="M213.588 98.102V110.002H212.364V99.19H209.559V98.102H213.588ZM221.175 110.104C220.257 110.104 219.436 109.86 218.71 109.373C217.996 108.886 217.435 108.189 217.027 107.282C216.631 106.364 216.432 105.287 216.432 104.052C216.432 102.817 216.631 101.746 217.027 100.839C217.435 99.921 217.996 99.218 218.71 98.731C219.436 98.244 220.257 98 221.175 98C222.093 98 222.909 98.244 223.623 98.731C224.349 99.218 224.915 99.921 225.323 100.839C225.731 101.746 225.935 102.817 225.935 104.052C225.935 105.287 225.731 106.364 225.323 107.282C224.915 108.189 224.349 108.886 223.623 109.373C222.909 109.86 222.093 110.104 221.175 110.104ZM221.175 108.982C221.867 108.982 222.473 108.789 222.994 108.404C223.527 108.019 223.941 107.458 224.235 106.721C224.53 105.984 224.677 105.095 224.677 104.052C224.677 103.009 224.53 102.12 224.235 101.383C223.941 100.646 223.527 100.085 222.994 99.7C222.473 99.315 221.867 99.122 221.175 99.122C220.484 99.122 219.872 99.315 219.339 99.7C218.818 100.085 218.41 100.646 218.115 101.383C217.821 102.12 217.673 103.009 217.673 104.052C217.673 105.095 217.821 105.984 218.115 106.721C218.41 107.458 218.818 108.019 219.339 108.404C219.872 108.789 220.484 108.982 221.175 108.982Z" fill="#4A535C"/>
<path d="M213.588 110.002V98.1021H209.559V99.1901H212.364V110.002H213.588Z" fill="#4A535C"/>
<path d="M216.338 130.102V142.002H215.114V131.19H212.309V130.102H216.338ZM227.581 130.102V130.969L222.6 142.002H221.274L226.17 131.19H220.05V133.417H218.843V130.102H227.581Z" fill="#4A535C"/>
<path d="M219.615 172.914V174.002H211.268V173.135L216.215 168.29C216.838 167.678 217.257 167.151 217.473 166.709C217.699 166.256 217.813 165.802 217.813 165.349C217.813 164.646 217.569 164.102 217.082 163.717C216.606 163.32 215.92 163.122 215.025 163.122C213.631 163.122 212.548 163.564 211.778 164.448L210.911 163.7C211.375 163.156 211.965 162.737 212.679 162.442C213.404 162.147 214.22 162 215.127 162C216.339 162 217.297 162.289 218 162.867C218.714 163.434 219.071 164.216 219.071 165.213C219.071 165.825 218.935 166.414 218.663 166.981C218.391 167.548 217.875 168.199 217.116 168.936L213.07 172.914H219.615ZM230.867 170.874H228.487V174.002H227.263V170.874H220.548V169.99L226.855 162.102H228.215L222.129 169.786H227.297V167.032H228.487V169.786H230.867V170.874Z" fill="#4A535C"/>
<path d="M219.777 199.1C221.024 199.168 221.97 199.508 222.616 200.12C223.273 200.721 223.602 201.508 223.602 202.483C223.602 203.163 223.438 203.769 223.109 204.302C222.78 204.823 222.293 205.237 221.647 205.543C221.001 205.849 220.213 206.002 219.284 206.002C218.423 206.002 217.607 205.866 216.836 205.594C216.077 205.311 215.465 204.937 215 204.472L215.595 203.503C215.992 203.911 216.519 204.245 217.176 204.506C217.833 204.755 218.536 204.88 219.284 204.88C220.259 204.88 221.012 204.67 221.545 204.251C222.078 203.82 222.344 203.231 222.344 202.483C222.344 201.746 222.078 201.168 221.545 200.749C221.012 200.33 220.208 200.12 219.131 200.12H218.281V199.219L221.579 195.088H215.493V194H223.143V194.867L219.777 199.1ZM228.625 194V205.9H227.401V195.088H224.596V194H228.625Z" fill="#4A535C"/>
<path d="M178.992 55.119C178.051 55.119 177.207 54.9207 176.459 54.524C175.711 54.1273 175.127 53.5777 174.708 52.875C174.289 52.161 174.079 51.3563 174.079 50.461C174.079 49.5657 174.289 48.7667 174.708 48.064C175.127 47.3613 175.705 46.8117 176.442 46.415C177.19 46.0183 178.04 45.82 178.992 45.82C179.887 45.82 180.669 46.0013 181.338 46.364C182.018 46.7267 182.528 47.248 182.868 47.928L181.236 48.88C180.975 48.4607 180.647 48.149 180.25 47.945C179.865 47.7297 179.44 47.622 178.975 47.622C178.182 47.622 177.524 47.8827 177.003 48.404C176.482 48.914 176.221 49.5997 176.221 50.461C176.221 51.3223 176.476 52.0137 176.986 52.535C177.507 53.045 178.17 53.3 178.975 53.3C179.44 53.3 179.865 53.198 180.25 52.994C180.647 52.7787 180.975 52.4613 181.236 52.042L182.868 52.994C182.517 53.674 182.001 54.201 181.321 54.575C180.652 54.9377 179.876 55.119 178.992 55.119ZM189.569 46.364C190.43 46.364 191.19 46.551 191.847 46.925C192.504 47.2877 193.014 47.7977 193.377 48.455C193.751 49.1123 193.938 49.866 193.938 50.716C193.938 51.5887 193.734 52.365 193.326 53.045C192.918 53.7137 192.346 54.235 191.609 54.609C190.872 54.983 190.034 55.17 189.093 55.17C187.518 55.17 186.299 54.6487 185.438 53.606C184.577 52.5633 184.146 51.0617 184.146 49.101C184.146 47.2763 184.537 45.8313 185.319 44.766C186.101 43.7007 187.297 42.998 188.906 42.658L193.122 41.757L193.428 43.661L189.603 44.443C188.504 44.6697 187.682 45.055 187.138 45.599C186.594 46.143 186.277 46.908 186.186 47.894C186.594 47.4067 187.087 47.0327 187.665 46.772C188.243 46.5 188.878 46.364 189.569 46.364ZM189.144 53.453C189.926 53.453 190.555 53.2037 191.031 52.705C191.518 52.195 191.762 51.549 191.762 50.767C191.762 49.985 191.518 49.356 191.031 48.88C190.555 48.404 189.926 48.166 189.144 48.166C188.351 48.166 187.71 48.404 187.223 48.88C186.736 49.356 186.492 49.985 186.492 50.767C186.492 51.5603 186.736 52.2063 187.223 52.705C187.722 53.2037 188.362 53.453 189.144 53.453Z" fill="#4A535C"/>
<path d="M18.319 106.772H15.939V109.9H14.715V106.772H8V105.888L14.307 98H15.667L9.58101 105.684H14.749V102.93H15.939V105.684H18.319V106.772Z" fill="#4A535C"/>
<path d="M13.029 162.102V174.002H11.805V163.19H9V162.102H13.029ZM22.691 167.763C23.439 168.012 24.011 168.386 24.408 168.885C24.816 169.384 25.02 169.984 25.02 170.687C25.02 171.378 24.833 171.985 24.459 172.506C24.085 173.016 23.547 173.413 22.844 173.696C22.153 173.968 21.337 174.104 20.396 174.104C18.968 174.104 17.846 173.798 17.03 173.186C16.214 172.574 15.806 171.741 15.806 170.687C15.806 169.973 15.999 169.372 16.384 168.885C16.781 168.386 17.353 168.012 18.101 167.763C17.489 167.525 17.024 167.185 16.707 166.743C16.39 166.29 16.231 165.757 16.231 165.145C16.231 164.182 16.605 163.417 17.353 162.85C18.112 162.283 19.127 162 20.396 162C21.235 162 21.966 162.13 22.589 162.391C23.224 162.64 23.717 163.003 24.068 163.479C24.419 163.955 24.595 164.51 24.595 165.145C24.595 165.757 24.431 166.29 24.102 166.743C23.773 167.185 23.303 167.525 22.691 167.763ZM17.455 165.179C17.455 165.836 17.716 166.358 18.237 166.743C18.758 167.128 19.478 167.321 20.396 167.321C21.314 167.321 22.034 167.128 22.555 166.743C23.088 166.358 23.354 165.842 23.354 165.196C23.354 164.527 23.082 164 22.538 163.615C22.005 163.23 21.291 163.037 20.396 163.037C19.489 163.037 18.77 163.23 18.237 163.615C17.716 164 17.455 164.522 17.455 165.179ZM20.396 173.067C21.45 173.067 22.272 172.852 22.861 172.421C23.462 171.99 23.762 171.407 23.762 170.67C23.762 169.933 23.462 169.355 22.861 168.936C22.272 168.505 21.45 168.29 20.396 168.29C19.353 168.29 18.532 168.505 17.931 168.936C17.342 169.355 17.047 169.933 17.047 170.67C17.047 171.418 17.342 172.007 17.931 172.438C18.52 172.857 19.342 173.067 20.396 173.067Z" fill="#4A535C"/>
<path d="M16.704 204.914V206.002H8.35699V205.135L13.304 200.29C13.928 199.678 14.347 199.151 14.562 198.709C14.789 198.256 14.902 197.802 14.902 197.349C14.902 196.646 14.659 196.102 14.171 195.717C13.695 195.32 13.01 195.122 12.114 195.122C10.72 195.122 9.63799 195.564 8.86699 196.448L8 195.7C8.465 195.156 9.05399 194.737 9.76799 194.442C10.494 194.147 11.31 194 12.216 194C13.429 194 14.387 194.289 15.089 194.867C15.803 195.434 16.16 196.216 16.16 197.213C16.16 197.825 16.024 198.414 15.752 198.981C15.48 199.548 14.965 200.199 14.205 200.936L10.159 204.914H16.704ZM21.369 198.981C23.091 198.981 24.344 199.293 25.126 199.916C25.919 200.528 26.316 201.389 26.316 202.5C26.316 203.191 26.151 203.809 25.823 204.353C25.505 204.897 25.024 205.328 24.378 205.645C23.732 205.951 22.938 206.104 21.998 206.104C21.148 206.104 20.337 205.968 19.567 205.696C18.807 205.413 18.195 205.039 17.731 204.574L18.326 203.605C18.722 204.013 19.244 204.347 19.89 204.608C20.536 204.857 21.233 204.982 21.981 204.982C22.967 204.982 23.726 204.761 24.259 204.319C24.803 203.877 25.075 203.288 25.075 202.551C25.075 201.735 24.769 201.117 24.157 200.698C23.556 200.279 22.536 200.069 21.097 200.069H18.564L19.176 194.102H25.687V195.19H20.247L19.839 198.981H21.369Z" fill="#4A535C"/>
<path d="M217.305 50.2739C218.427 50.6139 218.988 51.3392 218.988 52.4499C218.988 53.2659 218.682 53.8949 218.07 54.3369C217.458 54.7789 216.552 54.9999 215.35 54.9999H210.726V45.9219H215.163C216.274 45.9219 217.141 46.1259 217.764 46.5339C218.388 46.9419 218.699 47.5199 218.699 48.2679C218.699 48.7326 218.575 49.1349 218.325 49.4749C218.087 49.8149 217.747 50.0812 217.305 50.2739ZM212.749 49.7129H214.976C216.076 49.7129 216.625 49.3332 216.625 48.5739C216.625 47.8372 216.076 47.4689 214.976 47.4689H212.749V49.7129ZM215.18 53.4529C216.348 53.4529 216.931 53.0732 216.931 52.3139C216.931 51.9172 216.795 51.6226 216.523 51.4299C216.251 51.2259 215.826 51.1239 215.248 51.1239H212.749V53.4529H215.18ZM225.383 55.1189C224.442 55.1189 223.598 54.9206 222.85 54.5239C222.102 54.1272 221.518 53.5776 221.099 52.8749C220.679 52.1609 220.47 51.3562 220.47 50.4609C220.47 49.5656 220.679 48.7666 221.099 48.0639C221.518 47.3612 222.096 46.8116 222.833 46.4149C223.581 46.0182 224.431 45.8199 225.383 45.8199C226.278 45.8199 227.06 46.0012 227.729 46.3639C228.409 46.7266 228.919 47.2479 229.259 47.9279L227.627 48.8799C227.366 48.4606 227.037 48.1489 226.641 47.9449C226.255 47.7296 225.83 47.6219 225.366 47.6219C224.572 47.6219 223.915 47.8826 223.394 48.4039C222.872 48.9139 222.612 49.5996 222.612 50.4609C222.612 51.3222 222.867 52.0136 223.377 52.5349C223.898 53.0449 224.561 53.2999 225.366 53.2999C225.83 53.2999 226.255 53.1979 226.641 52.9939C227.037 52.7786 227.366 52.4612 227.627 52.0419L229.259 52.9939C228.907 53.6739 228.392 54.2009 227.712 54.5749C227.043 54.9376 226.267 55.1189 225.383 55.1189Z" fill="#4A535C"/>
<path d="M46.28 130.102V142.002H45.056V131.19H42.251V130.102H46.28ZM57.25 140.914V142.002H48.903V141.135L53.85 136.29C54.474 135.678 54.893 135.151 55.108 134.709C55.335 134.256 55.448 133.802 55.448 133.349C55.448 132.646 55.205 132.102 54.717 131.717C54.241 131.32 53.556 131.122 52.66 131.122C51.266 131.122 50.184 131.564 49.413 132.448L48.546 131.7C49.011 131.156 49.6 130.737 50.314 130.442C51.04 130.147 51.856 130 52.762 130C53.975 130 54.933 130.289 55.635 130.867C56.349 131.434 56.706 132.216 56.706 133.213C56.706 133.825 56.57 134.414 56.298 134.981C56.026 135.548 55.511 136.199 54.751 136.936L50.705 140.914H57.25Z" fill="#4A535C"/>
<path d="M47.135 162.102V174.002H45.911V163.19H43.106V162.102H47.135ZM53.686 162C55.261 162 56.468 162.521 57.307 163.564C58.145 164.595 58.565 166.057 58.565 167.95C58.565 169.276 58.338 170.398 57.885 171.316C57.431 172.234 56.797 172.931 55.981 173.407C55.165 173.872 54.213 174.104 53.125 174.104C51.946 174.104 51.005 173.889 50.303 173.458L50.796 172.472C51.362 172.846 52.133 173.033 53.108 173.033C54.422 173.033 55.454 172.619 56.202 171.792C56.95 170.953 57.324 169.741 57.324 168.154C57.324 167.859 57.307 167.536 57.273 167.185C56.978 167.831 56.508 168.335 55.862 168.698C55.216 169.049 54.473 169.225 53.635 169.225C52.853 169.225 52.156 169.078 51.544 168.783C50.943 168.488 50.473 168.075 50.133 167.542C49.793 166.998 49.623 166.369 49.623 165.655C49.623 164.93 49.798 164.289 50.15 163.734C50.501 163.179 50.983 162.754 51.595 162.459C52.218 162.153 52.915 162 53.686 162ZM53.822 168.188C54.422 168.188 54.949 168.075 55.403 167.848C55.867 167.621 56.23 167.31 56.491 166.913C56.751 166.516 56.882 166.074 56.882 165.587C56.882 165.134 56.757 164.714 56.508 164.329C56.27 163.944 55.913 163.632 55.437 163.394C54.961 163.156 54.394 163.037 53.737 163.037C52.875 163.037 52.173 163.275 51.629 163.751C51.096 164.216 50.83 164.839 50.83 165.621C50.83 166.403 51.096 167.026 51.629 167.491C52.173 167.956 52.904 168.188 53.822 168.188Z" fill="#4A535C"/>
<path d="M51.372 204.914V206.002H43.025V205.135L47.972 200.29C48.596 199.678 49.015 199.151 49.23 198.709C49.457 198.256 49.57 197.802 49.57 197.349C49.57 196.646 49.327 196.102 48.839 195.717C48.363 195.32 47.678 195.122 46.782 195.122C45.388 195.122 44.306 195.564 43.535 196.448L42.668 195.7C43.133 195.156 43.722 194.737 44.436 194.442C45.162 194.147 45.978 194 46.884 194C48.097 194 49.055 194.289 49.757 194.867C50.471 195.434 50.828 196.216 50.828 197.213C50.828 197.825 50.692 198.414 50.42 198.981C50.148 199.548 49.633 200.199 48.873 200.936L44.827 204.914H51.372ZM57.772 198.879C58.554 198.879 59.245 199.026 59.846 199.321C60.458 199.616 60.934 200.035 61.274 200.579C61.614 201.112 61.784 201.735 61.784 202.449C61.784 203.174 61.608 203.815 61.257 204.37C60.906 204.925 60.418 205.356 59.795 205.662C59.183 205.957 58.492 206.104 57.721 206.104C56.146 206.104 54.939 205.588 54.1 204.557C53.261 203.514 52.842 202.047 52.842 200.154C52.842 198.828 53.069 197.706 53.522 196.788C53.975 195.87 54.61 195.179 55.426 194.714C56.242 194.238 57.194 194 58.282 194C59.461 194 60.401 194.215 61.104 194.646L60.611 195.632C60.044 195.258 59.274 195.071 58.299 195.071C56.984 195.071 55.953 195.49 55.205 196.329C54.457 197.156 54.083 198.363 54.083 199.95C54.083 200.233 54.1 200.556 54.134 200.919C54.429 200.273 54.899 199.774 55.545 199.423C56.191 199.06 56.933 198.879 57.772 198.879ZM57.67 205.067C58.531 205.067 59.228 204.835 59.761 204.37C60.305 203.894 60.577 203.265 60.577 202.483C60.577 201.701 60.305 201.078 59.761 200.613C59.228 200.148 58.503 199.916 57.585 199.916C56.984 199.916 56.452 200.029 55.987 200.256C55.534 200.483 55.177 200.794 54.916 201.191C54.655 201.588 54.525 202.03 54.525 202.517C54.525 202.97 54.644 203.39 54.882 203.775C55.131 204.16 55.494 204.472 55.97 204.71C56.446 204.948 57.013 205.067 57.67 205.067Z" fill="#4A535C"/>
<path d="M48.1595 102.879C49.8815 102.879 51.1345 103.191 51.9165 103.814C52.7095 104.426 53.1065 105.287 53.1065 106.398C53.1065 107.089 52.9415 107.707 52.6135 108.251C52.2955 108.795 51.8145 109.226 51.1685 109.543C50.5225 109.849 49.7285 110.002 48.7885 110.002C47.9385 110.002 47.1275 109.866 46.3575 109.594C45.5975 109.311 44.9855 108.937 44.5215 108.472L45.1165 107.503C45.5125 107.911 46.0345 108.245 46.6805 108.506C47.3265 108.755 48.0235 108.88 48.7715 108.88C49.7575 108.88 50.5165 108.659 51.0495 108.217C51.5935 107.775 51.8655 107.186 51.8655 106.449C51.8655 105.633 51.5595 105.015 50.9475 104.596C50.3465 104.177 49.3265 103.967 47.8875 103.967H45.3545L45.9665 98H52.4775V99.088H47.0375L46.6295 102.879H48.1595Z" fill="#4A535C"/>
<path d="M186.733 28.4V30H174.458V28.725L181.733 21.6C182.65 20.7 183.267 19.925 183.583 19.275C183.917 18.6083 184.083 17.9417 184.083 17.275C184.083 16.2417 183.725 15.4417 183.008 14.875C182.308 14.2917 181.3 14 179.983 14C177.933 14 176.342 14.65 175.208 15.95L173.933 14.85C174.617 14.05 175.483 13.4333 176.533 13C177.6 12.5667 178.8 12.35 180.133 12.35C181.917 12.35 183.325 12.775 184.358 13.625C185.408 14.4583 185.933 15.6083 185.933 17.075C185.933 17.975 185.733 18.8417 185.333 19.675C184.933 20.5083 184.175 21.4667 183.058 22.55L177.108 28.4H186.733ZM195.87 30.15C194.52 30.15 193.311 29.7917 192.245 29.075C191.195 28.3583 190.37 27.3333 189.77 26C189.186 24.65 188.895 23.0667 188.895 21.25C188.895 19.4333 189.186 17.8583 189.77 16.525C190.37 15.175 191.195 14.1417 192.245 13.425C193.311 12.7083 194.52 12.35 195.87 12.35C197.22 12.35 198.42 12.7083 199.47 13.425C200.536 14.1417 201.37 15.175 201.97 16.525C202.57 17.8583 202.87 19.4333 202.87 21.25C202.87 23.0667 202.57 24.65 201.97 26C201.37 27.3333 200.536 28.3583 199.47 29.075C198.42 29.7917 197.22 30.15 195.87 30.15ZM195.87 28.5C196.886 28.5 197.778 28.2167 198.545 27.65C199.328 27.0833 199.936 26.2583 200.37 25.175C200.803 24.0917 201.02 22.7833 201.02 21.25C201.02 19.7167 200.803 18.4083 200.37 17.325C199.936 16.2417 199.328 15.4167 198.545 14.85C197.778 14.2833 196.886 14 195.87 14C194.853 14 193.953 14.2833 193.17 14.85C192.403 15.4167 191.803 16.2417 191.37 17.325C190.936 18.4083 190.72 19.7167 190.72 21.25C190.72 22.7833 190.936 24.0917 191.37 25.175C191.803 26.2583 192.403 27.0833 193.17 27.65C193.953 28.2167 194.853 28.5 195.87 28.5ZM217.349 28.4V30H205.074V28.725L212.349 21.6C213.265 20.7 213.882 19.925 214.199 19.275C214.532 18.6083 214.699 17.9417 214.699 17.275C214.699 16.2417 214.34 15.4417 213.624 14.875C212.924 14.2917 211.915 14 210.599 14C208.549 14 206.957 14.65 205.824 15.95L204.549 14.85C205.232 14.05 206.099 13.4333 207.149 13C208.215 12.5667 209.415 12.35 210.749 12.35C212.532 12.35 213.94 12.775 214.974 13.625C216.024 14.4583 216.549 15.6083 216.549 17.075C216.549 17.975 216.349 18.8417 215.949 19.675C215.549 20.5083 214.79 21.4667 213.674 22.55L207.724 28.4H217.349ZM231.558 28.4V30H219.283V28.725L226.558 21.6C227.474 20.7 228.091 19.925 228.408 19.275C228.741 18.6083 228.908 17.9417 228.908 17.275C228.908 16.2417 228.549 15.4417 227.833 14.875C227.133 14.2917 226.124 14 224.808 14C222.758 14 221.166 14.65 220.033 15.95L218.758 14.85C219.441 14.05 220.308 13.4333 221.358 13C222.424 12.5667 223.624 12.35 224.958 12.35C226.741 12.35 228.149 12.775 229.183 13.625C230.233 14.4583 230.758 15.6083 230.758 17.075C230.758 17.975 230.558 18.8417 230.158 19.675C229.758 20.5083 228.999 21.4667 227.883 22.55L221.933 28.4H231.558Z" fill="#4A535C" fill-opacity="0.3"/>
<path d="M42.6095 30C42.3108 30 42.0495 29.8973 41.8255 29.692C41.6015 29.4867 41.4895 29.2253 41.4895 28.908V9.224C41.4895 8.90667 41.6015 8.64533 41.8255 8.44C42.0495 8.23467 42.3108 8.132 42.6095 8.132C42.9268 8.132 43.1788 8.23467 43.3655 8.44C43.5708 8.64533 43.6735 8.90667 43.6735 9.224V26.416L57.6455 8.524C57.8508 8.26267 58.1308 8.132 58.4855 8.132C58.8028 8.132 59.0641 8.23467 59.2695 8.44C59.4748 8.64533 59.5775 8.90667 59.5775 9.224V28.908C59.5775 29.2253 59.4748 29.4867 59.2695 29.692C59.0641 29.8973 58.8028 30 58.4855 30C58.1681 30 57.9068 29.8973 57.7015 29.692C57.4961 29.4867 57.3935 29.2253 57.3935 28.908V11.744L43.4215 29.636C43.3281 29.748 43.2068 29.8413 43.0575 29.916C42.9081 29.972 42.7588 30 42.6095 30ZM65.9811 30C65.6451 30 65.3745 29.9067 65.1691 29.72C64.9825 29.5147 64.8891 29.2533 64.8891 28.936V15.776C64.8891 15.44 64.9825 15.1787 65.1691 14.992C65.3745 14.7867 65.6451 14.684 65.9811 14.684C66.2985 14.684 66.5505 14.7867 66.7371 14.992C66.9425 15.1787 67.0451 15.44 67.0451 15.776V28.936C67.0451 29.2533 66.9425 29.5147 66.7371 29.72C66.5505 29.9067 66.2985 30 65.9811 30ZM66.6811 23.28C66.4011 23.28 66.1678 23.196 65.9811 23.028C65.7945 22.8413 65.7011 22.5987 65.7011 22.3C65.7011 22.0013 65.7945 21.768 65.9811 21.6C66.1678 21.4133 66.4011 21.32 66.6811 21.32H70.7411C71.0398 21.32 71.2731 21.4133 71.4411 21.6C71.6278 21.768 71.7211 22.0013 71.7211 22.3C71.7211 22.5987 71.6278 22.8413 71.4411 23.028C71.2731 23.196 71.0398 23.28 70.7411 23.28H66.6811ZM77.9371 30.14C76.4251 30.14 75.0811 29.804 73.9051 29.132C72.7291 28.46 71.8051 27.536 71.1331 26.36C70.4611 25.184 70.1251 23.8493 70.1251 22.356C70.1251 20.844 70.4611 19.5 71.1331 18.324C71.8051 17.148 72.7291 16.224 73.9051 15.552C75.0811 14.88 76.4251 14.544 77.9371 14.544C79.4118 14.544 80.7278 14.88 81.8851 15.552C83.0611 16.224 83.9851 17.148 84.6571 18.324C85.3478 19.5 85.6931 20.844 85.6931 22.356C85.6931 23.8493 85.3571 25.184 84.6851 26.36C84.0131 27.536 83.0891 28.46 81.9131 29.132C80.7371 29.804 79.4118 30.14 77.9371 30.14ZM77.9371 28.18C79.0198 28.18 79.9811 27.928 80.8211 27.424C81.6798 26.92 82.3518 26.2293 82.8371 25.352C83.3225 24.4747 83.5651 23.476 83.5651 22.356C83.5651 21.236 83.3225 20.2373 82.8371 19.36C82.3518 18.464 81.6798 17.764 80.8211 17.26C79.9811 16.756 79.0198 16.504 77.9371 16.504C76.8358 16.504 75.8558 16.756 74.9971 17.26C74.1571 17.764 73.4851 18.464 72.9811 19.36C72.4958 20.2373 72.2531 21.236 72.2531 22.356C72.2531 23.476 72.4958 24.4747 72.9811 25.352C73.4851 26.2293 74.1571 26.92 74.9971 27.424C75.8558 27.928 76.8358 28.18 77.9371 28.18ZM95.6207 14.684C95.8447 14.684 96.05 14.74 96.2367 14.852C96.4233 14.964 96.5727 15.1507 96.6847 15.412L102.761 28.628C102.891 28.8893 102.901 29.1413 102.789 29.384C102.695 29.608 102.518 29.7853 102.257 29.916C101.958 30.0467 101.687 30.0747 101.445 30C101.202 29.9067 101.006 29.72 100.857 29.44L95.0607 16.532H96.3207L90.4127 29.412C90.282 29.692 90.0767 29.8787 89.7967 29.972C89.5353 30.0467 89.2647 30.0187 88.9847 29.888C88.7233 29.7573 88.5367 29.58 88.4247 29.356C88.3313 29.1133 88.3407 28.8613 88.4527 28.6L94.6127 15.412C94.8367 14.9267 95.1727 14.684 95.6207 14.684ZM112.866 30.28C111.578 30.28 110.448 30.0373 109.478 29.552C108.507 29.0667 107.742 28.404 107.182 27.564C106.64 26.7053 106.37 25.7067 106.37 24.568V15.748C106.388 15.4307 106.5 15.1787 106.706 14.992C106.911 14.7867 107.163 14.684 107.462 14.684C107.76 14.684 108.012 14.7867 108.218 14.992C108.423 15.1973 108.526 15.4587 108.526 15.776V19.752H113.09C114.303 19.752 115.367 19.9667 116.282 20.396C117.215 20.8253 117.934 21.432 118.438 22.216C118.96 23 119.222 23.9053 119.222 24.932C119.222 25.9587 118.951 26.8827 118.41 27.704C117.887 28.5067 117.15 29.1413 116.198 29.608C115.246 30.056 114.135 30.28 112.866 30.28ZM112.866 28.292C114.079 28.292 115.087 28.012 115.89 27.452C116.692 26.892 117.094 26.052 117.094 24.932C117.094 23.8867 116.739 23.0747 116.03 22.496C115.32 21.9173 114.34 21.628 113.09 21.628H108.526V24.568C108.526 25.2773 108.703 25.9213 109.058 26.5C109.431 27.06 109.935 27.4987 110.57 27.816C111.223 28.1333 111.988 28.292 112.866 28.292Z" fill="#4A535C"/>
<path d="M143.434 152.061C140.682 152.307 138.149 153.52 136.197 155.526C134.591 157.185 133.598 159.111 133.125 161.483C132.958 162.336 132.958 164.762 133.125 165.615C133.478 167.387 134.178 169.02 135.177 170.399C135.537 170.892 151.863 187.305 151.997 187.305C152.103 187.305 168.089 171.266 168.469 170.779C169.949 168.873 170.755 166.821 170.961 164.395C171.188 161.803 170.408 159.004 168.836 156.785C168.263 155.979 167.037 154.746 166.224 154.173C162.745 151.708 158.2 151.328 154.395 153.18C153.716 153.514 152.869 154.033 152.396 154.413C152.25 154.533 152.096 154.646 152.057 154.673C152.017 154.693 151.67 154.493 151.29 154.22C150.477 153.634 148.991 152.874 148.112 152.587C147.285 152.321 146.359 152.141 145.433 152.054C144.58 151.981 144.34 151.981 143.434 152.061ZM146.512 153.913C148.312 154.3 149.944 155.166 151.317 156.452L151.97 157.072L152.15 156.912C152.25 156.825 152.563 156.539 152.849 156.272C154.016 155.193 155.375 154.46 157.008 154.027C158.833 153.54 161.039 153.64 162.825 154.287C167.59 156.012 170.255 161.09 168.976 166.015C168.642 167.301 168.096 168.434 167.316 169.46C167.057 169.806 164.144 172.765 159.433 177.476L151.963 184.94L144.493 177.476C139.695 172.678 136.877 169.813 136.603 169.453C135.784 168.367 135.144 166.928 134.831 165.448C134.638 164.522 134.618 162.729 134.791 161.817C135.077 160.337 135.764 158.765 136.597 157.652C137.49 156.459 138.876 155.319 140.195 154.693C141.108 154.253 142.361 153.887 143.367 153.76C143.967 153.687 145.879 153.78 146.512 153.913Z" fill="black" fill-opacity="0.8"/>
</g>
<defs>
<clipPath id="clip0_308_61">
<rect width="233" height="234" fill="white"/>
</clipPath>
</defs>
</svg>
